<svg id="Add_photo" data-name="Add photo" xmlns="http://www.w3.org/2000/svg" width="47.148" height="47.148" viewBox="0 0 47.148 47.148">
  <g id="Group_47" data-name="Group 47" style="isolation: isolate">
    <g id="Group_20" data-name="Group 20" transform="translate(0 0)">
      <g id="Group_19" data-name="Group 19">
        <g id="Group_18" data-name="Group 18">
          <path id="Path_8" data-name="Path 8" d="M71.139,48.066H52.079V29.006a2.006,2.006,0,1,0-4.013,0v19.06H29.006a2.006,2.006,0,1,0,0,4.013h19.06v19.06a2.006,2.006,0,0,0,4.013,0V52.079h19.06a2.006,2.006,0,0,0,0-4.013Z" transform="translate(-26.498 -26.498)" fill="#f86600" fill-rule="evenodd"/>
          <path id="Path_9" data-name="Path 9" d="M50.074,73.648a2.511,2.511,0,0,1-2.508-2.508V52.582H29.008a2.508,2.508,0,0,1,0-5.016H47.566V29.008a2.508,2.508,0,0,1,5.016,0V47.566H71.141a2.508,2.508,0,1,1,0,5.016H52.582V71.141A2.51,2.51,0,0,1,50.074,73.648ZM29.008,48.569a1.5,1.5,0,0,0,0,3.009H48.569V71.141a1.5,1.5,0,0,0,3.009,0V51.579H71.141a1.5,1.5,0,0,0,0-3.009H51.579V29.008a1.5,1.5,0,0,0-3.009,0V48.569Z" transform="translate(-26.5 -26.5)" fill="#f86600"/>
        </g>
      </g>
    </g>
  </g>
</svg>
