<svg xmlns="http://www.w3.org/2000/svg" width="26.211" height="23.432" xmlns:v="https://vecta.io/nano"><path d="M6.813 0a6.63 6.63 0 0 0-4.818 2.08 7.3 7.3 0 0 0-.011 10.014l10.617 11.135a.72.72 0 0 0 1 0q5.313-5.56 10.617-11.124c2.653-2.811 2.653-7.203 0-10.014C22.966.762 21.221.008 19.395.008s-3.571.754-4.824 2.083l-1.466 1.52-1.466-1.531A6.55 6.55 0 0 0 6.81 0zm0 1.358A5.3 5.3 0 0 1 10.65 3.04l1.962 2.059a.72.72 0 0 0 1 0l1.951-2.048c.986-1.072 2.376-1.682 3.832-1.682s2.846.61 3.832 1.682c2.143 2.277 2.143 5.829 0 8.106q-5.06 5.295-10.122 10.6L2.986 11.145c-2.142-2.278-2.142-5.828 0-8.106.99-1.064 2.374-1.672 3.827-1.681z" fill="#f86600"/></svg>