<svg xmlns="http://www.w3.org/2000/svg" width="19.168" height="21.493" xmlns:v="https://vecta.io/nano"><path d="M1.691 21.493h3.946c.439.018.867-.143 1.185-.446s.501-.722.506-1.161v-6.2c-.005-.328.238-.607.564-.648h3.1c.326.041.569.32.564.648v6.2c.005.439.187.858.506 1.161s.746.464 1.185.446h4.228c.439.018.867-.143 1.185-.446s.501-.722.506-1.161v-10.8a1.73 1.73 0 0 0-.536-1.24L10.74.465a1.67 1.67 0 0 0-2.311 0L.536 7.85A1.68 1.68 0 0 0 0 9.091v10.8c.006.439.189.856.508 1.158s.745.462 1.183.444zm-.564-12.4c-.004-.158.057-.311.169-.423l7.893-7.385c.215-.197.546-.197.761 0l7.893 7.385c.112.112.173.265.169.423v10.8a.5.5 0 0 1-.564.479h-4.2a.5.5 0 0 1-.564-.479v-6.2a1.77 1.77 0 0 0-1.691-1.776h-3.1A1.75 1.75 0 0 0 6.2 13.685v6.2a.5.5 0 0 1-.564.479H1.691a.5.5 0 0 1-.564-.479z"/></svg>